<?xml version="1.0" encoding="utf-8"?>
<!-- Generator: Adobe Illustrator 25.2.1, SVG Export Plug-In . SVG Version: 6.00 Build 0)  -->
<svg version="1.1" id="Layer_1" xmlns="http://www.w3.org/2000/svg" xmlns:xlink="http://www.w3.org/1999/xlink" x="0px" y="0px"
	 viewBox="0 0 500 500" style="enable-background:new 0 0 500 500;" xml:space="preserve">
<style type="text/css">
	.st0{fill:#56B5FC;}
	.st1{fill:#FFFFFF;}
</style>
<circle class="st0" cx="250" cy="250" r="172.04"/>
<g>
	<g>
		<path class="st1" d="M277.13,253.97c-2.43,0-4.32-0.32-5.67-0.98c-1.35-0.65-2.36-1.5-3.04-2.55c-0.67-1.05-1.1-2.25-1.28-3.6
			c-0.18-1.35-0.27-2.72-0.27-4.12v-48.6c0-5,1.1-8.42,3.31-10.27c2.2-1.85,4.75-2.78,7.63-2.78h72.5c1.44,0,2.81,0.2,4.12,0.6
			c1.3,0.4,2.45,1.1,3.44,2.1c0.99,1,1.8,2.35,2.43,4.05c0.63,1.7,0.95,3.8,0.95,6.3v48.6c0,1.4-0.09,2.77-0.27,4.12
			c-0.18,1.35-0.61,2.55-1.28,3.6c-0.67,1.05-1.71,1.9-3.11,2.55c-1.4,0.65-3.26,0.98-5.6,0.98H277.13z M288.75,233.12h50.62v-31.2
			h-50.62V233.12z"/>
	</g>
	<g>
		<path class="st1" d="M257.49,342c-1.61,1.48-3.05,2.45-4.32,2.91c-1.27,0.46-2.46,0.58-3.56,0.36c-1.1-0.22-2.11-0.71-3.02-1.46
			c-0.91-0.75-1.8-1.61-2.68-2.57l-28.16-30.62c-2.93-3.19-4.24-6.02-3.92-8.49c0.32-2.47,1.4-4.55,3.24-6.25
			c0.92-0.84,1.91-1.52,2.98-2.03c1.07-0.51,2.21-0.74,3.43-0.68c1.22,0.06,2.53,0.44,3.93,1.16c1.4,0.72,2.83,1.87,4.3,3.46
			l22.53,24.49l35.57-32.71c1.44-1.32,2.79-2.15,4.06-2.5c1.27-0.35,2.43-0.41,3.48-0.2c1.05,0.22,2.01,0.66,2.88,1.32
			c0.88,0.67,1.61,1.32,2.2,1.95c0.76,0.83,1.44,1.71,2.03,2.64c0.59,0.93,0.95,1.93,1.08,2.98c0.13,1.06-0.06,2.18-0.57,3.35
			c-0.51,1.17-1.48,2.42-2.92,3.74L257.49,342z"/>
	</g>
</g>
<g>
	<path class="st1" d="M176.19,190.7c0-2.5,0.34-4.6,1.01-6.3c0.67-1.7,1.55-3.05,2.63-4.05c1.08-1,2.32-1.7,3.71-2.1
		c1.39-0.4,2.81-0.6,4.25-0.6c1.44,0,2.86,0.2,4.25,0.6c1.39,0.4,2.63,1.1,3.71,2.1c1.08,1,1.96,2.35,2.63,4.05
		c0.67,1.7,1.01,3.8,1.01,6.3v4.35c0,3.8,0.74,7.53,2.23,11.17c1.48,3.65,3.53,7.05,6.14,10.2c2.61,3.15,5.67,5.95,9.18,8.4
		c3.51,2.45,7.29,4.33,11.34,5.62c3.42,1.1,6.01,2.85,7.76,5.25c1.75,2.4,2.27,5.45,1.55,9.15c-0.81,3.9-2.88,6.5-6.21,7.8
		c-0.99,0.4-2.02,0.65-3.1,0.75c-1.08,0.1-2.16,0-3.24-0.3c-4.05-1-7.83-2.5-11.34-4.5c-3.51-2-6.82-4.28-9.92-6.83
		s-6.01-5.35-8.71-8.4c-2.7-3.05-5.22-6.17-7.56-9.38c-4.86,6.3-10.19,12.05-16,17.25c-5.81,5.2-12.08,8.8-18.83,10.8
		c-1.26,0.4-2.63,0.67-4.12,0.83c-1.48,0.15-2.95,0.07-4.39-0.23c-1.53-0.4-2.97-1.15-4.32-2.25c-1.35-1.1-2.34-2.8-2.97-5.1
		c-0.99-3.6-0.72-6.67,0.81-9.23c1.53-2.55,3.96-4.52,7.29-5.92c3.87-1.6,7.7-3.65,11.48-6.15c3.78-2.5,7.11-5.27,9.99-8.33
		c2.88-3.05,5.22-6.35,7.02-9.9c1.8-3.55,2.7-7.22,2.7-11.02V190.7z"/>
</g>
</svg>
